Coordinates
version=1
nRows=43
nColumns=12
inDegrees=yes

Units are S.I. units (second, meters, Newtons, ...)
Angles are in degrees

endheader
time	SC_y	SC_z	SC_x	AC_y	AC_z	AC_x	GH_y	GH_z	GH_yy	EL_x	PS_y
       0.0              -28.09          4.443          46.34          61.02         -18.55          4.791          162.7         -12.46          152.5          133.3          141.1
   0.04889              -28.08          4.447          46.34          61.02         -18.54          4.788          162.7         -12.46          152.4          133.3          141.1
   0.09778              -28.08          4.451          46.33          61.02         -18.54          4.785          162.7         -12.46          152.4          133.3          141.1
    0.1467              -28.08          4.456          46.33          61.02         -18.54          4.782          162.7         -12.46          152.4          133.3          141.1
    0.1956              -28.08          4.461          46.32          61.02         -18.53          4.778          162.7         -12.46          152.3          133.3          141.1
    0.2444              -28.08          4.466          46.31          61.02         -18.53          4.775          162.6         -12.46          152.3          133.3          141.1
    0.2933              -28.07          4.471          46.31          61.02         -18.52          4.771          162.6         -12.46          152.2          133.3          141.1
    0.3422              -28.07          4.477           46.3          61.02         -18.52          4.767          162.6         -12.46          152.2          133.3          141.1
    0.3911              -28.07          4.483          46.29          61.02         -18.51          4.763          162.6         -12.46          152.1          133.3          141.1
      0.44              -28.06           4.49          46.29          61.02          -18.5          4.758          162.5         -12.45          152.1          133.3          141.1
    0.4889              -28.06          4.497          46.28          61.02          -18.5          4.753          162.5         -12.45          152.0          133.3          141.1
    0.5378              -28.06          4.505          46.27          61.02         -18.49          4.747          162.5         -12.45          151.9          133.3          141.0
    0.5867              -28.05          4.513          46.26          61.02         -18.48          4.741          162.4         -12.45          151.9          133.3          141.0
    0.6356              -28.05          4.522          46.25          61.02         -18.47          4.735          162.4         -12.45          151.8          133.3          141.0
    0.6844              -28.04          4.532          46.24          61.03         -18.47          4.728          162.4         -12.45          151.7          133.3          141.0
    0.7333              -28.04          4.543          46.23          61.03         -18.46          4.721          162.3         -12.45          151.6          133.3          141.0
    0.7822              -28.03          4.554          46.21          61.03         -18.45          4.713          162.3         -12.45          151.5          133.3          141.0
    0.8311              -28.03          4.567           46.2          61.03         -18.43          4.704          162.2         -12.45          151.4          133.3          141.0
      0.88              -28.02           4.58          46.18          61.03         -18.42          4.694          162.1         -12.45          151.3          133.2          141.0
    0.9289              -28.02          4.595          46.17          61.03         -18.41          4.684          162.1         -12.44          151.2          133.2          141.0
    0.9778              -28.01          4.612          46.15          61.03         -18.39          4.672          162.0         -12.44          151.0          133.2          141.0
     1.027               -28.0           4.63          46.13          61.04         -18.38          4.659          161.9         -12.44          150.9          133.2          141.0
     1.076              -27.99           4.65           46.1          61.04         -18.36          4.645          161.8         -12.44          150.7          133.2          141.0
     1.124              -27.98          4.672          46.08          61.04         -18.34           4.63          161.8         -12.44          150.5          133.2          141.0
     1.173              -27.97          4.697          46.05          61.04         -18.31          4.612          161.6         -12.44          150.3          133.2          141.0
     1.222              -27.96          4.724          46.02          61.05         -18.29          4.593          161.5         -12.43          150.1          133.2          141.0
     1.271              -27.94          4.755          45.98          61.05         -18.26          4.571          161.4         -12.43          149.8          133.2          140.9
      1.32              -27.93           4.79          45.94          61.05         -18.23          4.547          161.2         -12.43          149.5          133.2          140.9
     1.369              -27.91          4.829           45.9          61.06         -18.19          4.519          161.1         -12.42          149.2          133.1          140.9
     1.418              -27.89          4.873          45.84          61.06         -18.15          4.488          160.9         -12.42          148.8          133.1          140.9
     1.467              -27.86          4.924          45.79          61.07          -18.1          4.452          160.7         -12.41          148.3          133.1          140.9
     1.516              -27.84          4.982          45.72          61.07         -18.05          4.411          160.4         -12.41          147.8          133.1          140.9
     1.564               -27.8          5.049          45.64          61.08         -17.99          4.364          160.1          -12.4          147.3          133.0          140.8
     1.613              -27.77          5.128          45.55          61.09         -17.92          4.309          159.8          -12.4          146.6          133.0          140.8
     1.662              -27.73          5.219          45.45           61.1         -17.83          4.245          159.4         -12.39          145.8          133.0          140.8
     1.711              -27.68          5.327          45.32          61.11         -17.73          4.169          158.9         -12.38          144.9          132.9          140.7
      1.76              -27.62          5.455          45.17          61.12         -17.62          4.079          158.4         -12.36          143.8          132.9          140.7
     1.809              -27.54          5.608           45.0          61.14         -17.47          3.971          157.7         -12.35          142.5          132.8          140.6
     1.858              -27.46          5.794          44.78          61.16          -17.3           3.84          156.9         -12.33          140.9          132.7          140.5
     1.907              -27.35          6.021          44.52          61.19         -17.09           3.68          156.0         -12.31          139.0          132.6          140.4
     1.956              -27.22          6.301           44.2          61.22         -16.84          3.483          154.8         -12.29          136.6          132.5          140.3
     2.004              -27.06           6.65           43.8          61.25         -16.52          3.238          153.3         -12.25          133.6          132.3          140.2
     2.053              -26.86           7.09          43.29           61.3         -16.11          2.928          151.4         -12.21          129.8          132.1          140.0
